<svg width="15" height="14" viewBox="0 0 15 14" xmlns="http://www.w3.org/2000/svg"><title>LinkedIn Logo</title><path d="M14.97 8.582v5.403h-3.21V8.943c0-1.266-.463-2.13-1.625-2.13-.886 0-1.414.582-1.646 1.146-.084.201-.106.481-.106.763v5.263h-3.21s.044-8.539 0-9.423h3.21v1.335l-.022.03h.022v-.03c.426-.64 1.187-1.557 2.892-1.557 2.111 0 3.694 1.347 3.694 4.242zM1.815.019C.718.019 0 .722 0 1.647c0 .904.697 1.629 1.774 1.629h.021c1.12 0 1.815-.725 1.815-1.63C3.59.723 2.914.02 1.816.02zM.191 13.985h3.208V4.562H.19v9.423z" fill="#FFF" fill-rule="evenodd"/></svg>