<svg data-name="Layer 1" xmlns="http://www.w3.org/2000/svg" viewBox="0 0 512 606.32"><title>PDF Icon</title><path d="M215.58 417.68h202.1V229.05H256V53.9H53.9V512h121.26v-53.89a40.42 40.42 0 0 1 40.42-40.43zM175.16 565.9H0V0h299.79l171.79 171.79v245.9A40.43 40.43 0 0 1 512 458.11V565.9a40.43 40.43 0 0 1-40.42 40.42h-256a40.43 40.43 0 0 1-40.42-40.42zM296.42 70.74v104.42h104.42zM215.58 565.9h26.95v-40.43H256c22.32 0 40.42-11.37 40.42-33.68s-18.1-33.68-40.42-33.68h-40.42V565.9zM256 498.53h-13.47v-13.48H256c7.45 0 13.47-.71 13.47 6.74s-6.02 6.74-13.47 6.74zm148.21 67.37h26.95v-40.43h26.94v-26.94h-26.94v-13.48h40.42v-26.94h-67.37V565.9zm-94.32-107.79v107.78h40.42a40.43 40.43 0 0 0 40.42-40.42v-26.94a40.43 40.43 0 0 0-40.42-40.42h-40.42zm53.89 67.37a13.47 13.47 0 0 1-13.47 13.47h-13.47v-53.9h13.47a13.47 13.47 0 0 1 13.47 13.47v26.95z"/></svg>