<svg xmlns="http://www.w3.org/2000/svg"><defs><style>.cls-1{fill:none}</style></defs><symbol viewBox="0 0 25 16" id="icon-icon-arrow-down"><title>Down Arrow</title><path d="M1.583 0h21.723c.445 0 .84.22 1.123.563.613.688.613 1.814.006 2.509L13.551 15.477c-.607.697-1.59.697-2.197 0l-.037-.067L.457 3.072c-.61-.695-.61-1.82 0-2.515C.756.208 1.147 0 1.583 0z" fill="#5A6464" fill-rule="evenodd"/></symbol><symbol viewBox="0 0 17 26" id="icon-icon-arrow-left"><title>Left Arrow</title><path d="M16.445 2.138v21.723c0 .445-.22.84-.563 1.123-.688.613-1.814.613-2.509.006L.968 14.105c-.697-.606-.697-1.59 0-2.196l.067-.037 12.338-10.86c.695-.61 1.821-.61 2.515 0 .35.299.557.69.557 1.126z" fill="#5A6464" fill-rule="evenodd"/></symbol><symbol viewBox="0 0 16 25" id="icon-icon-arrow-right--link"><title>Arrow Right Icon</title><desc>arrow pointing right to indicate link as an action item</desc><path d="M0 1.583v21.723c0 .445.22.84.563 1.123.688.613 1.814.613 2.509.006l12.405-10.884c.697-.607.697-1.59 0-2.197l-.067-.037L3.072.457c-.695-.61-1.82-.61-2.515 0C.208.756 0 1.147 0 1.583z" fill="#789696" fill-rule="evenodd"/></symbol><symbol viewBox="0 0 16 25" id="icon-icon-arrow-right"><title>Right Arrow</title><path d="M0 1.583v21.723c0 .445.22.84.563 1.123.688.613 1.814.613 2.509.006l12.405-10.884c.697-.607.697-1.59 0-2.197l-.067-.037L3.072.457c-.695-.61-1.82-.61-2.515 0C.208.756 0 1.147 0 1.583z" fill="#5A6464" fill-rule="evenodd"/></symbol><symbol viewBox="0 0 25 16" id="icon-icon-arrow-up--white"><title>Up arrow</title><path d="M1.583 16h21.723c.445 0 .84-.22 1.123-.563.613-.688.613-1.814.006-2.509L13.551.523c-.607-.697-1.59-.697-2.197 0l-.037.067L.457 12.928c-.61.695-.61 1.82 0 2.515.299.349.69.557 1.126.557z" fill="#fff" fill-rule="evenodd"/></symbol><symbol viewBox="0 0 25 16" id="icon-icon-arrow-up"><title>Up Arrow</title><path d="M1.583 16h21.723c.445 0 .84-.22 1.123-.563.613-.688.613-1.814.006-2.509L13.551.523c-.607-.697-1.59-.697-2.197 0l-.037.067L.457 12.928c-.61.695-.61 1.82 0 2.515.299.349.69.557 1.126.557z" fill="#5A6464" fill-rule="evenodd"/></symbol><symbol viewBox="0 0 14 12" id="icon-icon-check"><title>Checked Icon</title><path d="M1 6.924l3.68 3.68L12.13 1" stroke="#789696" stroke-width="2" stroke-linecap="round" stroke-linejoin="round" fill="none" fill-rule="evenodd"/></symbol><symbol viewBox="0 0 512 526.05" id="icon-icon-download"><title>Download</title><path d="M482.51 308.1a29.48 29.48 0 0 0-29.49 29.49v129.49H58.97V337.59a29.5 29.5 0 0 0-59 0v159a29.48 29.48 0 0 0 29.49 29.49h453a29.48 29.48 0 0 0 29.49-29.49v-159a29.48 29.48 0 0 0-29.44-29.49z"/><path d="M235.14 374.61a29.48 29.48 0 0 0 41.7 0l118.9-118.9A29.486 29.486 0 0 0 354.05 214l-68.57 68.57V29.49a29.5 29.5 0 1 0-59 0v253.09L157.96 214a29.49 29.49 0 0 0-41.71 41.69z"/></symbol><symbol viewBox="0 0 14 14" id="icon-icon-edit"><title>Edit</title><path d="M.118 12.718a.921.921 0 0 0 1.206 1.206l3.372-1.414-3.164-3.165-1.414 3.373zM13.726 2.596l-2.28-2.28a.921.921 0 0 0-1.304 0L2.376 8.08l-.005.007 3.583 3.582.006-.005 7.766-7.766a.922.922 0 0 0 0-1.303z" fill="#5AC8E7" fill-rule="evenodd"/></symbol><symbol viewBox="0 0 16 16" id="icon-icon-error"><title>Error</title><path d="M9 9H7V3h2v6zm0 4H7v-2h2v2zM8 0a8 8 0 0 0-8 8 8 8 0 1 0 16 0 8 8 0 0 0-8-8z" fill="#FF0A0A" fill-rule="evenodd"/></symbol><symbol viewBox="0 0 9 18" id="icon-icon-facebook"><title>Facebook Logo</title><path d="M4.604 17.345V8.66H7.46l.452-2.878H4.604V4.34c0-.75.245-1.468 1.32-1.468H8.07V0H5.022C2.46 0 1.76 1.693 1.76 4.04v1.742H0V8.66h1.76v8.684h2.844z" fill="#FFF" fill-rule="evenodd"/></symbol><symbol viewBox="0 0 15 14" id="icon-icon-linkdein"><title>LinkedIn Logo</title><path d="M14.97 8.582v5.403h-3.21V8.943c0-1.266-.463-2.13-1.625-2.13-.886 0-1.414.582-1.646 1.146-.084.201-.106.481-.106.763v5.263h-3.21s.044-8.539 0-9.423h3.21v1.335l-.022.03h.022v-.03c.426-.64 1.187-1.557 2.892-1.557 2.111 0 3.694 1.347 3.694 4.242zM1.815.019C.718.019 0 .722 0 1.647c0 .904.697 1.629 1.774 1.629h.021c1.12 0 1.815-.725 1.815-1.63C3.59.723 2.914.02 1.816.02zM.191 13.985h3.208V4.562H.19v9.423z" fill="#FFF" fill-rule="evenodd"/></symbol><symbol viewBox="0 0 14 3" id="icon-icon-minus"><title>Minus</title><path d="M1.72 2.44h10.56a.72.72 0 1 0 0-1.44H1.72a.72.72 0 0 0 0 1.44z" stroke="#FFF" fill="#FFF" fill-rule="evenodd"/></symbol><symbol viewBox="0 0 378.51 378.51" id="icon-icon-new-window"><title>Open New Window</title><path class="cls-1" d="M47.76 47.77v267.35a9.51 9.51 0 0 0 9.48 9.48H324.6a9.51 9.51 0 0 0 9.48-9.48v-78.06H153a9.51 9.51 0 0 1-9.48-9.48V38.28H57.24a9.51 9.51 0 0 0-9.48 9.49z" transform="translate(-1.67)"/><path d="M334.08 315.12a9.51 9.51 0 0 1-9.48 9.48H57.24a9.51 9.51 0 0 1-9.48-9.48V47.77a9.51 9.51 0 0 1 9.48-9.48h86.27V0H11.15a9.51 9.51 0 0 0-9.48 9.48V369a9.51 9.51 0 0 0 9.48 9.48h359.54a9.51 9.51 0 0 0 9.48-9.48V237h-46.09v78.06zm36.61-136.54L201.59 9.48A9.51 9.51 0 0 1 211.07 0h159.62a9.51 9.51 0 0 1 9.48 9.48V169.1a9.51 9.51 0 0 1-9.48 9.48z" transform="translate(-1.67)"/><rect x="224.45" y="21.95" width="70.13" height="197.43" rx="12" ry="12" transform="rotate(45 258.675 118.647)"/></symbol><symbol viewBox="0 0 512 606.32" id="icon-icon-pdf"><title>PDF Icon</title><path d="M215.58 417.68h202.1V229.05H256V53.9H53.9V512h121.26v-53.89a40.42 40.42 0 0 1 40.42-40.43zM175.16 565.9H0V0h299.79l171.79 171.79v245.9A40.43 40.43 0 0 1 512 458.11V565.9a40.43 40.43 0 0 1-40.42 40.42h-256a40.43 40.43 0 0 1-40.42-40.42zM296.42 70.74v104.42h104.42zM215.58 565.9h26.95v-40.43H256c22.32 0 40.42-11.37 40.42-33.68s-18.1-33.68-40.42-33.68h-40.42V565.9zM256 498.53h-13.47v-13.48H256c7.45 0 13.47-.71 13.47 6.74s-6.02 6.74-13.47 6.74zm148.21 67.37h26.95v-40.43h26.94v-26.94h-26.94v-13.48h40.42v-26.94h-67.37V565.9zm-94.32-107.79v107.78h40.42a40.43 40.43 0 0 0 40.42-40.42v-26.94a40.43 40.43 0 0 0-40.42-40.42h-40.42zm53.89 67.37a13.47 13.47 0 0 1-13.47 13.47h-13.47v-53.9h13.47a13.47 13.47 0 0 1 13.47 13.47v26.95z"/></symbol><symbol viewBox="0 0 14 14" id="icon-icon-plus"><title>Plus Icon</title><path d="M12.226 6.239h-4.49v-4.49a.748.748 0 1 0-1.497 0v4.49h-4.49a.748.748 0 1 0 0 1.496h4.49v4.49a.748.748 0 1 0 1.496 0v-4.49h4.49a.748.748 0 0 0 0-1.496z" stroke="#FFF" fill="#FFF" fill-rule="evenodd"/></symbol><symbol viewBox="0 0 26 27" id="icon-icon-search"><title>Submit Search</title><g transform="translate(2.026 2.334)" stroke="#000" stroke-width="3" fill="none" fill-rule="evenodd"><ellipse cx="9.101" cy="9.157" rx="9.101" ry="9.157"/><path d="M15.306 16.233l6.314 6.353" stroke-linecap="round"/></g></symbol><symbol viewBox="0 0 14 12" id="icon-icon-twitter"><title>Twitter</title><path d="M12.535 3.416c0-.131-.003-.261-.009-.39a5.898 5.898 0 0 0 1.43-1.541 5.474 5.474 0 0 1-1.645.451 2.947 2.947 0 0 0 1.26-1.65 5.49 5.49 0 0 1-1.819.704A2.845 2.845 0 0 0 9.662 0C8.082-.026 6.8 1.315 6.8 2.994c0 .238.025.47.075.693C4.492 3.534 2.382 2.291.97.417a3.192 3.192 0 0 0-.387 1.535c0 1.063.506 2.009 1.274 2.566A2.735 2.735 0 0 1 .56 4.121v.04c0 1.486.987 2.731 2.297 3.022a2.704 2.704 0 0 1-1.292.044c.364 1.218 1.422 2.108 2.674 2.138A5.516 5.516 0 0 1 0 10.62 7.708 7.708 0 0 0 4.39 12c5.265.001 8.145-4.596 8.145-8.584z" fill="#FFF" fill-rule="evenodd"/></symbol><symbol viewBox="0 0 25 22" id="icon-icon-warning-white"><title>Warning</title><path d="M23.4 15.758L15.492 2.002A3.987 3.987 0 0 0 12.037 0a3.987 3.987 0 0 0-3.455 2.002L.534 15.994a4.017 4.017 0 0 0 0 4.004A3.987 3.987 0 0 0 3.99 22h16.105a3.997 3.997 0 0 0 3.989-4.004c0-.829-.252-1.6-.683-2.238zm-9.655 1.34c0 .946-.726 1.67-1.704 1.67-.977 0-1.703-.724-1.703-1.67v-.04c0-.942.726-1.67 1.703-1.67.978 0 1.704.724 1.704 1.67v.04zm.039-11.262l-.843 7.388c-.057.533-.409.864-.9.864-.49 0-.843-.336-.9-.864L10.3 5.831c-.057-.57.252-1.003.782-1.003h1.916c.53.005.843.436.787 1.008z" fill="#fff" fill-rule="evenodd"/></symbol><symbol viewBox="0 0 25 22" id="icon-icon-warning"><title>Warning</title><path d="M23.4 15.758L15.492 2.002A3.987 3.987 0 0 0 12.037 0a3.987 3.987 0 0 0-3.455 2.002L.534 15.994a4.017 4.017 0 0 0 0 4.004A3.987 3.987 0 0 0 3.99 22h16.105a3.997 3.997 0 0 0 3.989-4.004c0-.829-.252-1.6-.683-2.238zm-9.655 1.34c0 .946-.726 1.67-1.704 1.67-.977 0-1.703-.724-1.703-1.67v-.04c0-.942.726-1.67 1.703-1.67.978 0 1.704.724 1.704 1.67v.04zm.039-11.262l-.843 7.388c-.057.533-.409.864-.9.864-.49 0-.843-.336-.9-.864L10.3 5.831c-.057-.57.252-1.003.782-1.003h1.916c.53.005.843.436.787 1.008z" fill-rule="evenodd"/></symbol><symbol viewBox="0 0 30 32" id="icon-phone"><title>Phone Icon</title><path d="M27.763 9.891c-.793 2.576-2.219 5.154-4.236 7.658-1.861 2.308-5.613 6.578-9.832 9.212-3.975 2.481-7.157 2.529-9.779.142l-.001.001-.006-.006-.005-.004.001-.001-1.528-1.482a1.362 1.362 0 0 1 0-1.922l3.82-3.818a1.356 1.356 0 0 1 1.872-.04l1.871 1.86.429.429c.331.331.907.347 1.3.091a33.672 33.672 0 0 0 9.909-9.931.988.988 0 0 0-.131-1.241l-.745-.743.001-.001-1.505-1.503c-.513-.513-.515-1.405 0-1.922l3.818-3.82a1.362 1.362 0 0 1 1.922 0l.105.105 1.423 1.439-.002.002c1.67 1.771 2.008 3.202 1.299 5.495zm-.194-7.212l-1.231-1.228a3.345 3.345 0 0 0-4.724 0l-3.818 3.82c-1.262 1.262-1.262 3.458 0 4.724l1.674 1.672a31.646 31.646 0 0 1-8.276 8.279l-.872-.872-.805-.803a3.339 3.339 0 0 0-4.722 0l-3.82 3.818a3.345 3.345 0 0 0 0 4.724l.803.8.002.004.006.004.476.476c2.284 2.287 6.305 4.201 12.483.343 4.464-2.786 8.385-7.24 10.325-9.648 2.175-2.701 3.719-5.5 4.587-8.316.287-.929.434-1.781.434-2.585 0-1.877-.804-3.492-2.522-5.211z"/></symbol></svg>