<svg width="25" height="22" viewBox="0 0 25 22" xmlns="http://www.w3.org/2000/svg"><title>Warning</title><path d="M23.4 15.758L15.492 2.002A3.987 3.987 0 0 0 12.037 0a3.987 3.987 0 0 0-3.455 2.002L.534 15.994a4.017 4.017 0 0 0 0 4.004A3.987 3.987 0 0 0 3.99 22h16.105a3.997 3.997 0 0 0 3.989-4.004c0-.829-.252-1.6-.683-2.238zm-9.655 1.34c0 .946-.726 1.67-1.704 1.67-.977 0-1.703-.724-1.703-1.67v-.04c0-.942.726-1.67 1.703-1.67.978 0 1.704.724 1.704 1.67v.04zm.039-11.262l-.843 7.388c-.057.533-.409.864-.9.864-.49 0-.843-.336-.9-.864L10.3 5.831c-.057-.57.252-1.003.782-1.003h1.916c.53.005.843.436.787 1.008z" fill="#fff" fill-rule="evenodd"/></svg>