<svg id="Layer_1" data-name="Layer 1" xmlns="http://www.w3.org/2000/svg" viewBox="0 0 378.51 378.51"><defs><style>.cls-1{fill:none}</style></defs><title>Open New Window</title><path class="cls-1" d="M47.76 47.77v267.35a9.51 9.51 0 0 0 9.48 9.48H324.6a9.51 9.51 0 0 0 9.48-9.48v-78.06H153a9.51 9.51 0 0 1-9.48-9.48V38.28H57.24a9.51 9.51 0 0 0-9.48 9.49z" transform="translate(-1.67)"/><path d="M334.08 315.12a9.51 9.51 0 0 1-9.48 9.48H57.24a9.51 9.51 0 0 1-9.48-9.48V47.77a9.51 9.51 0 0 1 9.48-9.48h86.27V0H11.15a9.51 9.51 0 0 0-9.48 9.48V369a9.51 9.51 0 0 0 9.48 9.48h359.54a9.51 9.51 0 0 0 9.48-9.48V237h-46.09v78.06zm36.61-136.54L201.59 9.48A9.51 9.51 0 0 1 211.07 0h159.62a9.51 9.51 0 0 1 9.48 9.48V169.1a9.51 9.51 0 0 1-9.48 9.48z" transform="translate(-1.67)"/><rect x="224.45" y="21.95" width="70.13" height="197.43" rx="12" ry="12" transform="rotate(45 258.675 118.647)"/></svg>