<svg width="14" height="12" viewBox="0 0 14 12" xmlns="http://www.w3.org/2000/svg"><title>Twitter</title><path d="M12.535 3.416c0-.131-.003-.261-.009-.39a5.898 5.898 0 0 0 1.43-1.541 5.474 5.474 0 0 1-1.645.451 2.947 2.947 0 0 0 1.26-1.65 5.49 5.49 0 0 1-1.819.704A2.845 2.845 0 0 0 9.662 0C8.082-.026 6.8 1.315 6.8 2.994c0 .238.025.47.075.693C4.492 3.534 2.382 2.291.97.417a3.192 3.192 0 0 0-.387 1.535c0 1.063.506 2.009 1.274 2.566A2.735 2.735 0 0 1 .56 4.121v.04c0 1.486.987 2.731 2.297 3.022a2.704 2.704 0 0 1-1.292.044c.364 1.218 1.422 2.108 2.674 2.138A5.516 5.516 0 0 1 0 10.62 7.708 7.708 0 0 0 4.39 12c5.265.001 8.145-4.596 8.145-8.584z" fill="#FFF" fill-rule="evenodd"/></svg>