<svg xmlns="http://www.w3.org/2000/svg" width="30" height="32" viewBox="0 0 30 32"><title>Phone Icon</title><path d="M27.763 9.891c-.793 2.576-2.219 5.154-4.236 7.658-1.861 2.308-5.613 6.578-9.832 9.212-3.975 2.481-7.157 2.529-9.779.142l-.001.001-.006-.006-.005-.004.001-.001-1.528-1.482a1.362 1.362 0 0 1 0-1.922l3.82-3.818a1.356 1.356 0 0 1 1.872-.04l1.871 1.86.429.429c.331.331.907.347 1.3.091a33.672 33.672 0 0 0 9.909-9.931.988.988 0 0 0-.131-1.241l-.745-.743.001-.001-1.505-1.503c-.513-.513-.515-1.405 0-1.922l3.818-3.82a1.362 1.362 0 0 1 1.922 0l.105.105 1.423 1.439-.002.002c1.67 1.771 2.008 3.202 1.299 5.495zm-.194-7.212l-1.231-1.228a3.345 3.345 0 0 0-4.724 0l-3.818 3.82c-1.262 1.262-1.262 3.458 0 4.724l1.674 1.672a31.646 31.646 0 0 1-8.276 8.279l-.872-.872-.805-.803a3.339 3.339 0 0 0-4.722 0l-3.82 3.818a3.345 3.345 0 0 0 0 4.724l.803.8.002.004.006.004.476.476c2.284 2.287 6.305 4.201 12.483.343 4.464-2.786 8.385-7.24 10.325-9.648 2.175-2.701 3.719-5.5 4.587-8.316.287-.929.434-1.781.434-2.585 0-1.877-.804-3.492-2.522-5.211z"/></svg>